<svg xmlns="http://www.w3.org/2000/svg" viewBox="0,0,800,600" width="800" height="600" role="img" aria-label="אחו עם פרחים (ציור לדוגמה)"><defs><linearGradient id="s" x1="0" y1="0" x2="0" y2="1"><stop offset="0" stop-color="#78B7EA"/><stop offset="1" stop-color="#DDF0FF"/></linearGradient><linearGradient id="g" x1="0" y1="0" x2="0" y2="1"><stop offset="0" stop-color="#7DBB5A"/><stop offset="1" stop-color="#3C7A3A"/></linearGradient></defs><rect width="800" height="600" fill="url(#s)"/><g fill="#fff" opacity="0.85"><ellipse cx="200" cy="110" rx="91" ry="28.6"/><ellipse cx="252" cy="91.8" rx="57.2" ry="31.200000000000003"/><ellipse cx="150.6" cy="99.6" rx="46.800000000000004" ry="23.400000000000002"/></g><g fill="#fff" opacity="0.85"><ellipse cx="560" cy="80" rx="70" ry="22"/><ellipse cx="600" cy="66" rx="44" ry="24"/><ellipse cx="522" cy="72" rx="36" ry="18"/></g><g fill="#fff" opacity="0.7"><ellipse cx="700" cy="170" rx="56" ry="17.6"/><ellipse cx="732" cy="158.8" rx="35.2" ry="19.200000000000003"/><ellipse cx="669.6" cy="163.6" rx="28.8" ry="14.4"/></g>
     <path d="M0,600V300C160,250,360,335,520,290S720,270,800,300V600Z" fill="#8CC46B"/><path d="M0,600V340C160,320,360,368,520,332S720,316,800,340V600Z" fill="url(#g)"/><line x1="260" y1="520.9" x2="260" y2="551.9" stroke="#3E7C3A" stroke-width="3.4"/><circle cx="260" cy="520.9" r="10.3" fill="#F27B8A"/><circle cx="260" cy="520.9" r="3.4" fill="#C47A1B"/><line x1="700.2" y1="469.9" x2="700.2" y2="495" stroke="#3E7C3A" stroke-width="2.8"/><circle cx="700.2" cy="469.9" r="8.4" fill="#B48CE0"/><circle cx="700.2" cy="469.9" r="2.8" fill="#C47A1B"/><line x1="285.8" y1="459.8" x2="285.8" y2="483.8" stroke="#3E7C3A" stroke-width="2.7"/><circle cx="285.8" cy="459.8" r="8" fill="#B48CE0"/><circle cx="285.8" cy="459.8" r="2.7" fill="#C47A1B"/><line x1="628.7" y1="359.6" x2="628.7" y2="372.1" stroke="#3E7C3A" stroke-width="1.4"/><circle cx="628.7" cy="359.6" r="4.1" fill="#F27B8A"/><circle cx="628.7" cy="359.6" r="1.4" fill="#C47A1B"/><line x1="668" y1="440.3" x2="668" y2="462" stroke="#3E7C3A" stroke-width="2.4"/><circle cx="668" cy="440.3" r="7.2" fill="#FFFFFF"/><circle cx="668" cy="440.3" r="2.4" fill="#C47A1B"/><line x1="537.8" y1="366.7" x2="537.8" y2="379.9" stroke="#3E7C3A" stroke-width="1.5"/><circle cx="537.8" cy="366.7" r="4.4" fill="#F27B8A"/><circle cx="537.8" cy="366.7" r="1.5" fill="#C47A1B"/><line x1="31.4" y1="582.6" x2="31.4" y2="620.8" stroke="#3E7C3A" stroke-width="4.2"/><circle cx="31.4" cy="582.6" r="12.7" fill="#F59E4C"/><circle cx="31.4" cy="582.6" r="4.2" fill="#C47A1B"/><line x1="102.4" y1="346.2" x2="102.4" y2="357" stroke="#3E7C3A" stroke-width="1.2"/><circle cx="102.4" cy="346.2" r="3.6" fill="#F5D04C"/><circle cx="102.4" cy="346.2" r="1.2" fill="#C47A1B"/><line x1="752.1" y1="331.8" x2="752.1" y2="341.1" stroke="#3E7C3A" stroke-width="1"/><circle cx="752.1" cy="331.8" r="3.1" fill="#FFFFFF"/><circle cx="752.1" cy="331.8" r="1" fill="#C47A1B"/><line x1="790.7" y1="495" x2="790.7" y2="523" stroke="#3E7C3A" stroke-width="3.1"/><circle cx="790.7" cy="495" r="9.3" fill="#F27B8A"/><circle cx="790.7" cy="495" r="3.1" fill="#C47A1B"/><line x1="278.6" y1="451.7" x2="278.6" y2="474.7" stroke="#3E7C3A" stroke-width="2.6"/><circle cx="278.6" cy="451.7" r="7.7" fill="#F5D04C"/><circle cx="278.6" cy="451.7" r="2.6" fill="#C47A1B"/><line x1="76.3" y1="465.5" x2="76.3" y2="490.2" stroke="#3E7C3A" stroke-width="2.7"/><circle cx="76.3" cy="465.5" r="8.2" fill="#F5D04C"/><circle cx="76.3" cy="465.5" r="2.7" fill="#C47A1B"/><line x1="644" y1="579.7" x2="644" y2="617.5" stroke="#3E7C3A" stroke-width="4.2"/><circle cx="644" cy="579.7" r="12.6" fill="#F5D04C"/><circle cx="644" cy="579.7" r="4.2" fill="#C47A1B"/><line x1="58" y1="585.3" x2="58" y2="623.8" stroke="#3E7C3A" stroke-width="4.3"/><circle cx="58" cy="585.3" r="12.8" fill="#F59E4C"/><circle cx="58" cy="585.3" r="4.3" fill="#C47A1B"/><line x1="155.8" y1="467.1" x2="155.8" y2="491.9" stroke="#3E7C3A" stroke-width="2.8"/><circle cx="155.8" cy="467.1" r="8.3" fill="#B48CE0"/><circle cx="155.8" cy="467.1" r="2.8" fill="#C47A1B"/><line x1="622.4" y1="343.4" x2="622.4" y2="353.9" stroke="#3E7C3A" stroke-width="1.2"/><circle cx="622.4" cy="343.4" r="3.5" fill="#F59E4C"/><circle cx="622.4" cy="343.4" r="1.2" fill="#C47A1B"/><line x1="356.5" y1="545.1" x2="356.5" y2="578.9" stroke="#3E7C3A" stroke-width="3.8"/><circle cx="356.5" cy="545.1" r="11.3" fill="#F59E4C"/><circle cx="356.5" cy="545.1" r="3.8" fill="#C47A1B"/><line x1="571.3" y1="348.5" x2="571.3" y2="359.6" stroke="#3E7C3A" stroke-width="1.2"/><circle cx="571.3" cy="348.5" r="3.7" fill="#F59E4C"/><circle cx="571.3" cy="348.5" r="1.2" fill="#C47A1B"/><line x1="513.3" y1="548.1" x2="513.3" y2="582.3" stroke="#3E7C3A" stroke-width="3.8"/><circle cx="513.3" cy="548.1" r="11.4" fill="#FFFFFF"/><circle cx="513.3" cy="548.1" r="3.8" fill="#C47A1B"/><line x1="679" y1="338.6" x2="679" y2="348.6" stroke="#3E7C3A" stroke-width="1.1"/><circle cx="679" cy="338.6" r="3.3" fill="#F59E4C"/><circle cx="679" cy="338.6" r="1.1" fill="#C47A1B"/><line x1="250" y1="472.5" x2="250" y2="497.9" stroke="#3E7C3A" stroke-width="2.8"/><circle cx="250" cy="472.5" r="8.5" fill="#F59E4C"/><circle cx="250" cy="472.5" r="2.8" fill="#C47A1B"/><line x1="357.6" y1="571.4" x2="357.6" y2="608.2" stroke="#3E7C3A" stroke-width="4.1"/><circle cx="357.6" cy="571.4" r="12.3" fill="#F27B8A"/><circle cx="357.6" cy="571.4" r="4.1" fill="#C47A1B"/><line x1="761.9" y1="334.8" x2="761.9" y2="344.3" stroke="#3E7C3A" stroke-width="1.1"/><circle cx="761.9" cy="334.8" r="3.2" fill="#F27B8A"/><circle cx="761.9" cy="334.8" r="1.1" fill="#C47A1B"/><line x1="639.4" y1="443.9" x2="639.4" y2="466.1" stroke="#3E7C3A" stroke-width="2.5"/><circle cx="639.4" cy="443.9" r="7.4" fill="#F59E4C"/><circle cx="639.4" cy="443.9" r="2.5" fill="#C47A1B"/><line x1="345.4" y1="569.1" x2="345.4" y2="605.7" stroke="#3E7C3A" stroke-width="4.1"/><circle cx="345.4" cy="569.1" r="12.2" fill="#F27B8A"/><circle cx="345.4" cy="569.1" r="4.1" fill="#C47A1B"/><line x1="499.3" y1="498" x2="499.3" y2="526.4" stroke="#3E7C3A" stroke-width="3.2"/><circle cx="499.3" cy="498" r="9.5" fill="#B48CE0"/><circle cx="499.3" cy="498" r="3.2" fill="#C47A1B"/><line x1="164.1" y1="573.9" x2="164.1" y2="611" stroke="#3E7C3A" stroke-width="4.1"/><circle cx="164.1" cy="573.9" r="12.4" fill="#F27B8A"/><circle cx="164.1" cy="573.9" r="4.1" fill="#C47A1B"/><line x1="429.8" y1="419.8" x2="429.8" y2="439.1" stroke="#3E7C3A" stroke-width="2.2"/><circle cx="429.8" cy="419.8" r="6.5" fill="#F5D04C"/><circle cx="429.8" cy="419.8" r="2.2" fill="#C47A1B"/><line x1="664.5" y1="404.9" x2="664.5" y2="422.5" stroke="#3E7C3A" stroke-width="2"/><circle cx="664.5" cy="404.9" r="5.9" fill="#F5D04C"/><circle cx="664.5" cy="404.9" r="2" fill="#C47A1B"/><line x1="315.6" y1="532" x2="315.6" y2="564.3" stroke="#3E7C3A" stroke-width="3.6"/><circle cx="315.6" cy="532" r="10.8" fill="#FFFFFF"/><circle cx="315.6" cy="532" r="3.6" fill="#C47A1B"/><line x1="675" y1="432.8" x2="675" y2="453.6" stroke="#3E7C3A" stroke-width="2.3"/><circle cx="675" cy="432.8" r="7" fill="#FFFFFF"/><circle cx="675" cy="432.8" r="2.3" fill="#C47A1B"/><line x1="207.9" y1="587.3" x2="207.9" y2="626" stroke="#3E7C3A" stroke-width="4.3"/><circle cx="207.9" cy="587.3" r="12.9" fill="#F5D04C"/><circle cx="207.9" cy="587.3" r="4.3" fill="#C47A1B"/><line x1="16.5" y1="514.1" x2="16.5" y2="544.3" stroke="#3E7C3A" stroke-width="3.4"/><circle cx="16.5" cy="514.1" r="10.1" fill="#B48CE0"/><circle cx="16.5" cy="514.1" r="3.4" fill="#C47A1B"/><line x1="518" y1="533.3" x2="518" y2="565.8" stroke="#3E7C3A" stroke-width="3.6"/><circle cx="518" cy="533.3" r="10.8" fill="#F27B8A"/><circle cx="518" cy="533.3" r="3.6" fill="#C47A1B"/><line x1="521.2" y1="414.9" x2="521.2" y2="433.7" stroke="#3E7C3A" stroke-width="2.1"/><circle cx="521.2" cy="414.9" r="6.3" fill="#F5D04C"/><circle cx="521.2" cy="414.9" r="2.1" fill="#C47A1B"/><line x1="585.9" y1="378.9" x2="585.9" y2="393.5" stroke="#3E7C3A" stroke-width="1.6"/><circle cx="585.9" cy="378.9" r="4.9" fill="#F59E4C"/><circle cx="585.9" cy="378.9" r="1.6" fill="#C47A1B"/><line x1="91.2" y1="493.9" x2="91.2" y2="521.8" stroke="#3E7C3A" stroke-width="3.1"/><circle cx="91.2" cy="493.9" r="9.3" fill="#FFFFFF"/><circle cx="91.2" cy="493.9" r="3.1" fill="#C47A1B"/><line x1="23" y1="575.9" x2="23" y2="613.2" stroke="#3E7C3A" stroke-width="4.2"/><circle cx="23" cy="575.9" r="12.5" fill="#FFFFFF"/><circle cx="23" cy="575.9" r="4.2" fill="#C47A1B"/><line x1="574.2" y1="464.3" x2="574.2" y2="488.8" stroke="#3E7C3A" stroke-width="2.7"/><circle cx="574.2" cy="464.3" r="8.2" fill="#F59E4C"/><circle cx="574.2" cy="464.3" r="2.7" fill="#C47A1B"/><line x1="408.8" y1="440.6" x2="408.8" y2="462.3" stroke="#3E7C3A" stroke-width="2.4"/><circle cx="408.8" cy="440.6" r="7.3" fill="#F5D04C"/><circle cx="408.8" cy="440.6" r="2.4" fill="#C47A1B"/><line x1="356.3" y1="554.3" x2="356.3" y2="589.2" stroke="#3E7C3A" stroke-width="3.9"/><circle cx="356.3" cy="554.3" r="11.6" fill="#F27B8A"/><circle cx="356.3" cy="554.3" r="3.9" fill="#C47A1B"/><line x1="368.7" y1="481.4" x2="368.7" y2="507.9" stroke="#3E7C3A" stroke-width="2.9"/><circle cx="368.7" cy="481.4" r="8.8" fill="#FFFFFF"/><circle cx="368.7" cy="481.4" r="2.9" fill="#C47A1B"/><line x1="242.7" y1="465.5" x2="242.7" y2="490.1" stroke="#3E7C3A" stroke-width="2.7"/><circle cx="242.7" cy="465.5" r="8.2" fill="#F27B8A"/><circle cx="242.7" cy="465.5" r="2.7" fill="#C47A1B"/><line x1="480" y1="565.7" x2="480" y2="601.9" stroke="#3E7C3A" stroke-width="4"/><circle cx="480" cy="565.7" r="12.1" fill="#FFFFFF"/><circle cx="480" cy="565.7" r="4" fill="#C47A1B"/><line x1="124.6" y1="383" x2="124.6" y2="398.1" stroke="#3E7C3A" stroke-width="1.7"/><circle cx="124.6" cy="383" r="5" fill="#F27B8A"/><circle cx="124.6" cy="383" r="1.7" fill="#C47A1B"/><line x1="151.3" y1="543.7" x2="151.3" y2="577.4" stroke="#3E7C3A" stroke-width="3.7"/><circle cx="151.3" cy="543.7" r="11.2" fill="#F59E4C"/><circle cx="151.3" cy="543.7" r="3.7" fill="#C47A1B"/><line x1="653.4" y1="389.2" x2="653.4" y2="405" stroke="#3E7C3A" stroke-width="1.8"/><circle cx="653.4" cy="389.2" r="5.3" fill="#F27B8A"/><circle cx="653.4" cy="389.2" r="1.8" fill="#C47A1B"/><line x1="591.9" y1="411.8" x2="591.9" y2="430.3" stroke="#3E7C3A" stroke-width="2"/><circle cx="591.9" cy="411.8" r="6.1" fill="#F59E4C"/><circle cx="591.9" cy="411.8" r="2" fill="#C47A1B"/><line x1="324.3" y1="426.8" x2="324.3" y2="447" stroke="#3E7C3A" stroke-width="2.2"/><circle cx="324.3" cy="426.8" r="6.7" fill="#F59E4C"/><circle cx="324.3" cy="426.8" r="2.2" fill="#C47A1B"/><line x1="270" y1="562.4" x2="270" y2="598.2" stroke="#3E7C3A" stroke-width="4"/><circle cx="270" cy="562.4" r="11.9" fill="#FFFFFF"/><circle cx="270" cy="562.4" r="4" fill="#C47A1B"/><line x1="738.2" y1="564.6" x2="738.2" y2="600.7" stroke="#3E7C3A" stroke-width="4"/><circle cx="738.2" cy="564.6" r="12" fill="#FFFFFF"/><circle cx="738.2" cy="564.6" r="4" fill="#C47A1B"/><line x1="115.3" y1="546.9" x2="115.3" y2="580.9" stroke="#3E7C3A" stroke-width="3.8"/><circle cx="115.3" cy="546.9" r="11.3" fill="#F27B8A"/><circle cx="115.3" cy="546.9" r="3.8" fill="#C47A1B"/><line x1="111.3" y1="410.3" x2="111.3" y2="428.5" stroke="#3E7C3A" stroke-width="2"/><circle cx="111.3" cy="410.3" r="6.1" fill="#F27B8A"/><circle cx="111.3" cy="410.3" r="2" fill="#C47A1B"/><line x1="208.8" y1="564.5" x2="208.8" y2="600.6" stroke="#3E7C3A" stroke-width="4"/><circle cx="208.8" cy="564.5" r="12" fill="#F27B8A"/><circle cx="208.8" cy="564.5" r="4" fill="#C47A1B"/><line x1="95" y1="559" x2="95" y2="594.4" stroke="#3E7C3A" stroke-width="3.9"/><circle cx="95" cy="559" r="11.8" fill="#F27B8A"/><circle cx="95" cy="559" r="3.9" fill="#C47A1B"/><line x1="540.1" y1="345.4" x2="540.1" y2="356.2" stroke="#3E7C3A" stroke-width="1.2"/><circle cx="540.1" cy="345.4" r="3.6" fill="#B48CE0"/><circle cx="540.1" cy="345.4" r="1.2" fill="#C47A1B"/><line x1="631.2" y1="482.9" x2="631.2" y2="509.5" stroke="#3E7C3A" stroke-width="3"/><circle cx="631.2" cy="482.9" r="8.9" fill="#F27B8A"/><circle cx="631.2" cy="482.9" r="3" fill="#C47A1B"/><line x1="45.7" y1="553.2" x2="45.7" y2="587.9" stroke="#3E7C3A" stroke-width="3.9"/><circle cx="45.7" cy="553.2" r="11.6" fill="#B48CE0"/><circle cx="45.7" cy="553.2" r="3.9" fill="#C47A1B"/><line x1="685.6" y1="508.5" x2="685.6" y2="538.1" stroke="#3E7C3A" stroke-width="3.3"/><circle cx="685.6" cy="508.5" r="9.9" fill="#F5D04C"/><circle cx="685.6" cy="508.5" r="3.3" fill="#C47A1B"/><line x1="147.2" y1="473.3" x2="147.2" y2="498.8" stroke="#3E7C3A" stroke-width="2.8"/><circle cx="147.2" cy="473.3" r="8.5" fill="#F27B8A"/><circle cx="147.2" cy="473.3" r="2.8" fill="#C47A1B"/><line x1="706.2" y1="426.2" x2="706.2" y2="446.3" stroke="#3E7C3A" stroke-width="2.2"/><circle cx="706.2" cy="426.2" r="6.7" fill="#FFFFFF"/><circle cx="706.2" cy="426.2" r="2.2" fill="#C47A1B"/><line x1="15.1" y1="524.6" x2="15.1" y2="556" stroke="#3E7C3A" stroke-width="3.5"/><circle cx="15.1" cy="524.6" r="10.5" fill="#B48CE0"/><circle cx="15.1" cy="524.6" r="3.5" fill="#C47A1B"/><line x1="714.5" y1="353.6" x2="714.5" y2="365.4" stroke="#3E7C3A" stroke-width="1.3"/><circle cx="714.5" cy="353.6" r="3.9" fill="#F5D04C"/><circle cx="714.5" cy="353.6" r="1.3" fill="#C47A1B"/><line x1="83.4" y1="397.2" x2="83.4" y2="413.9" stroke="#3E7C3A" stroke-width="1.9"/><circle cx="83.4" cy="397.2" r="5.6" fill="#F59E4C"/><circle cx="83.4" cy="397.2" r="1.9" fill="#C47A1B"/><line x1="521.2" y1="357.3" x2="521.2" y2="369.4" stroke="#3E7C3A" stroke-width="1.3"/><circle cx="521.2" cy="357.3" r="4" fill="#FFFFFF"/><circle cx="521.2" cy="357.3" r="1.3" fill="#C47A1B"/><line x1="21.2" y1="460" x2="21.2" y2="484" stroke="#3E7C3A" stroke-width="2.7"/><circle cx="21.2" cy="460" r="8" fill="#F27B8A"/><circle cx="21.2" cy="460" r="2.7" fill="#C47A1B"/><line x1="732.1" y1="462.9" x2="732.1" y2="487.3" stroke="#3E7C3A" stroke-width="2.7"/><circle cx="732.1" cy="462.9" r="8.1" fill="#F5D04C"/><circle cx="732.1" cy="462.9" r="2.7" fill="#C47A1B"/><line x1="483" y1="502.5" x2="483" y2="531.4" stroke="#3E7C3A" stroke-width="3.2"/><circle cx="483" cy="502.5" r="9.6" fill="#F5D04C"/><circle cx="483" cy="502.5" r="3.2" fill="#C47A1B"/><line x1="393.9" y1="341.9" x2="393.9" y2="352.3" stroke="#3E7C3A" stroke-width="1.2"/><circle cx="393.9" cy="341.9" r="3.5" fill="#F59E4C"/><circle cx="393.9" cy="341.9" r="1.2" fill="#C47A1B"/><line x1="510.2" y1="468.8" x2="510.2" y2="493.8" stroke="#3E7C3A" stroke-width="2.8"/><circle cx="510.2" cy="468.8" r="8.3" fill="#B48CE0"/><circle cx="510.2" cy="468.8" r="2.8" fill="#C47A1B"/><line x1="548.2" y1="448.6" x2="548.2" y2="471.3" stroke="#3E7C3A" stroke-width="2.5"/><circle cx="548.2" cy="448.6" r="7.6" fill="#F5D04C"/><circle cx="548.2" cy="448.6" r="2.5" fill="#C47A1B"/><line x1="129.4" y1="448.9" x2="129.4" y2="471.6" stroke="#3E7C3A" stroke-width="2.5"/><circle cx="129.4" cy="448.9" r="7.6" fill="#B48CE0"/><circle cx="129.4" cy="448.9" r="2.5" fill="#C47A1B"/><line x1="563" y1="335.8" x2="563" y2="345.5" stroke="#3E7C3A" stroke-width="1.1"/><circle cx="563" cy="335.8" r="3.2" fill="#F59E4C"/><circle cx="563" cy="335.8" r="1.1" fill="#C47A1B"/><line x1="120.6" y1="388.5" x2="120.6" y2="404.3" stroke="#3E7C3A" stroke-width="1.8"/><circle cx="120.6" cy="388.5" r="5.3" fill="#F27B8A"/><circle cx="120.6" cy="388.5" r="1.8" fill="#C47A1B"/><line x1="301.7" y1="573.2" x2="301.7" y2="610.2" stroke="#3E7C3A" stroke-width="4.1"/><circle cx="301.7" cy="573.2" r="12.4" fill="#FFFFFF"/><circle cx="301.7" cy="573.2" r="4.1" fill="#C47A1B"/><line x1="542" y1="462.4" x2="542" y2="486.6" stroke="#3E7C3A" stroke-width="2.7"/><circle cx="542" cy="462.4" r="8.1" fill="#FFFFFF"/><circle cx="542" cy="462.4" r="2.7" fill="#C47A1B"/><line x1="456.8" y1="346.9" x2="456.8" y2="357.8" stroke="#3E7C3A" stroke-width="1.2"/><circle cx="456.8" cy="346.9" r="3.6" fill="#B48CE0"/><circle cx="456.8" cy="346.9" r="1.2" fill="#C47A1B"/><line x1="383.2" y1="420.2" x2="383.2" y2="439.6" stroke="#3E7C3A" stroke-width="2.2"/><circle cx="383.2" cy="420.2" r="6.5" fill="#B48CE0"/><circle cx="383.2" cy="420.2" r="2.2" fill="#C47A1B"/><line x1="43.5" y1="532.9" x2="43.5" y2="565.3" stroke="#3E7C3A" stroke-width="3.6"/><circle cx="43.5" cy="532.9" r="10.8" fill="#F59E4C"/><circle cx="43.5" cy="532.9" r="3.6" fill="#C47A1B"/><line x1="119.3" y1="559" x2="119.3" y2="594.4" stroke="#3E7C3A" stroke-width="3.9"/><circle cx="119.3" cy="559" r="11.8" fill="#F27B8A"/><circle cx="119.3" cy="559" r="3.9" fill="#C47A1B"/><line x1="13.6" y1="434.8" x2="13.6" y2="455.9" stroke="#3E7C3A" stroke-width="2.3"/><circle cx="13.6" cy="434.8" r="7" fill="#FFFFFF"/><circle cx="13.6" cy="434.8" r="2.3" fill="#C47A1B"/><line x1="174.2" y1="582.6" x2="174.2" y2="620.8" stroke="#3E7C3A" stroke-width="4.2"/><circle cx="174.2" cy="582.6" r="12.7" fill="#F5D04C"/><circle cx="174.2" cy="582.6" r="4.2" fill="#C47A1B"/><line x1="7.1" y1="336.8" x2="7.1" y2="346.6" stroke="#3E7C3A" stroke-width="1.1"/><circle cx="7.1" cy="336.8" r="3.3" fill="#FFFFFF"/><circle cx="7.1" cy="336.8" r="1.1" fill="#C47A1B"/><line x1="398.8" y1="450.5" x2="398.8" y2="473.4" stroke="#3E7C3A" stroke-width="2.5"/><circle cx="398.8" cy="450.5" r="7.6" fill="#B48CE0"/><circle cx="398.8" cy="450.5" r="2.5" fill="#C47A1B"/><line x1="419.1" y1="389.7" x2="419.1" y2="405.6" stroke="#3E7C3A" stroke-width="1.8"/><circle cx="419.1" cy="389.7" r="5.3" fill="#B48CE0"/><circle cx="419.1" cy="389.7" r="1.8" fill="#C47A1B"/><line x1="82" y1="530.4" x2="82" y2="562.5" stroke="#3E7C3A" stroke-width="3.6"/><circle cx="82" cy="530.4" r="10.7" fill="#B48CE0"/><circle cx="82" cy="530.4" r="3.6" fill="#C47A1B"/><line x1="60" y1="498.1" x2="60" y2="526.5" stroke="#3E7C3A" stroke-width="3.2"/><circle cx="60" cy="498.1" r="9.5" fill="#FFFFFF"/><circle cx="60" cy="498.1" r="3.2" fill="#C47A1B"/><line x1="746.1" y1="414.3" x2="746.1" y2="433.1" stroke="#3E7C3A" stroke-width="2.1"/><circle cx="746.1" cy="414.3" r="6.2" fill="#F27B8A"/><circle cx="746.1" cy="414.3" r="2.1" fill="#C47A1B"/><line x1="721.2" y1="370.7" x2="721.2" y2="384.4" stroke="#3E7C3A" stroke-width="1.5"/><circle cx="721.2" cy="370.7" r="4.6" fill="#B48CE0"/><circle cx="721.2" cy="370.7" r="1.5" fill="#C47A1B"/><line x1="584.4" y1="439.1" x2="584.4" y2="460.7" stroke="#3E7C3A" stroke-width="2.4"/><circle cx="584.4" cy="439.1" r="7.2" fill="#F27B8A"/><circle cx="584.4" cy="439.1" r="2.4" fill="#C47A1B"/><line x1="596.7" y1="348.7" x2="596.7" y2="359.8" stroke="#3E7C3A" stroke-width="1.2"/><circle cx="596.7" cy="348.7" r="3.7" fill="#FFFFFF"/><circle cx="596.7" cy="348.7" r="1.2" fill="#C47A1B"/><line x1="687.9" y1="540.5" x2="687.9" y2="573.8" stroke="#3E7C3A" stroke-width="3.7"/><circle cx="687.9" cy="540.5" r="11.1" fill="#F5D04C"/><circle cx="687.9" cy="540.5" r="3.7" fill="#C47A1B"/><line x1="605.9" y1="533.2" x2="605.9" y2="565.6" stroke="#3E7C3A" stroke-width="3.6"/><circle cx="605.9" cy="533.2" r="10.8" fill="#FFFFFF"/><circle cx="605.9" cy="533.2" r="3.6" fill="#C47A1B"/><line x1="204" y1="426.8" x2="204" y2="447" stroke="#3E7C3A" stroke-width="2.2"/><circle cx="204" cy="426.8" r="6.7" fill="#FFFFFF"/><circle cx="204" cy="426.8" r="2.2" fill="#C47A1B"/><line x1="249.9" y1="503.9" x2="249.9" y2="533" stroke="#3E7C3A" stroke-width="3.2"/><circle cx="249.9" cy="503.9" r="9.7" fill="#F27B8A"/><circle cx="249.9" cy="503.9" r="3.2" fill="#C47A1B"/><line x1="369.3" y1="359.9" x2="369.3" y2="372.3" stroke="#3E7C3A" stroke-width="1.4"/><circle cx="369.3" cy="359.9" r="4.1" fill="#F27B8A"/><circle cx="369.3" cy="359.9" r="1.4" fill="#C47A1B"/><line x1="7" y1="503" x2="7" y2="531.9" stroke="#3E7C3A" stroke-width="3.2"/><circle cx="7" cy="503" r="9.7" fill="#F5D04C"/><circle cx="7" cy="503" r="3.2" fill="#C47A1B"/><line x1="715.9" y1="404.7" x2="715.9" y2="422.3" stroke="#3E7C3A" stroke-width="2"/><circle cx="715.9" cy="404.7" r="5.9" fill="#F59E4C"/><circle cx="715.9" cy="404.7" r="2" fill="#C47A1B"/><line x1="99.4" y1="582.7" x2="99.4" y2="620.8" stroke="#3E7C3A" stroke-width="4.2"/><circle cx="99.4" cy="582.7" r="12.7" fill="#F5D04C"/><circle cx="99.4" cy="582.7" r="4.2" fill="#C47A1B"/><line x1="673" y1="364.9" x2="673" y2="377.9" stroke="#3E7C3A" stroke-width="1.4"/><circle cx="673" cy="364.9" r="4.3" fill="#F27B8A"/><circle cx="673" cy="364.9" r="1.4" fill="#C47A1B"/><line x1="490.3" y1="413.7" x2="490.3" y2="432.4" stroke="#3E7C3A" stroke-width="2.1"/><circle cx="490.3" cy="413.7" r="6.2" fill="#F5D04C"/><circle cx="490.3" cy="413.7" r="2.1" fill="#C47A1B"/><line x1="362.3" y1="477.3" x2="362.3" y2="503.3" stroke="#3E7C3A" stroke-width="2.9"/><circle cx="362.3" cy="477.3" r="8.7" fill="#FFFFFF"/><circle cx="362.3" cy="477.3" r="2.9" fill="#C47A1B"/><line x1="459.2" y1="428.8" x2="459.2" y2="449.2" stroke="#3E7C3A" stroke-width="2.3"/><circle cx="459.2" cy="428.8" r="6.8" fill="#F27B8A"/><circle cx="459.2" cy="428.8" r="2.3" fill="#C47A1B"/><line x1="653.3" y1="532.1" x2="653.3" y2="564.4" stroke="#3E7C3A" stroke-width="3.6"/><circle cx="653.3" cy="532.1" r="10.8" fill="#FFFFFF"/><circle cx="653.3" cy="532.1" r="3.6" fill="#C47A1B"/><line x1="76.9" y1="349.5" x2="76.9" y2="360.8" stroke="#3E7C3A" stroke-width="1.3"/><circle cx="76.9" cy="349.5" r="3.8" fill="#B48CE0"/><circle cx="76.9" cy="349.5" r="1.3" fill="#C47A1B"/><line x1="323.7" y1="410.7" x2="323.7" y2="429" stroke="#3E7C3A" stroke-width="2"/><circle cx="323.7" cy="410.7" r="6.1" fill="#F27B8A"/><circle cx="323.7" cy="410.7" r="2" fill="#C47A1B"/><line x1="53.2" y1="541.3" x2="53.2" y2="574.7" stroke="#3E7C3A" stroke-width="3.7"/><circle cx="53.2" cy="541.3" r="11.1" fill="#F59E4C"/><circle cx="53.2" cy="541.3" r="3.7" fill="#C47A1B"/><line x1="651.2" y1="432.2" x2="651.2" y2="453" stroke="#3E7C3A" stroke-width="2.3"/><circle cx="651.2" cy="432.2" r="6.9" fill="#F27B8A"/><circle cx="651.2" cy="432.2" r="2.3" fill="#C47A1B"/><line x1="197.3" y1="548.8" x2="197.3" y2="583" stroke="#3E7C3A" stroke-width="3.8"/><circle cx="197.3" cy="548.8" r="11.4" fill="#F5D04C"/><circle cx="197.3" cy="548.8" r="3.8" fill="#C47A1B"/><line x1="498.4" y1="453.9" x2="498.4" y2="477.2" stroke="#3E7C3A" stroke-width="2.6"/><circle cx="498.4" cy="453.9" r="7.8" fill="#F27B8A"/><circle cx="498.4" cy="453.9" r="2.6" fill="#C47A1B"/><line x1="656.9" y1="468.3" x2="656.9" y2="493.2" stroke="#3E7C3A" stroke-width="2.8"/><circle cx="656.9" cy="468.3" r="8.3" fill="#FFFFFF"/><circle cx="656.9" cy="468.3" r="2.8" fill="#C47A1B"/><line x1="499" y1="479.8" x2="499" y2="506" stroke="#3E7C3A" stroke-width="2.9"/><circle cx="499" cy="479.8" r="8.8" fill="#F5D04C"/><circle cx="499" cy="479.8" r="2.9" fill="#C47A1B"/><line x1="81.8" y1="571.1" x2="81.8" y2="607.9" stroke="#3E7C3A" stroke-width="4.1"/><circle cx="81.8" cy="571.1" r="12.3" fill="#FFFFFF"/><circle cx="81.8" cy="571.1" r="4.1" fill="#C47A1B"/><line x1="531" y1="566.1" x2="531" y2="602.4" stroke="#3E7C3A" stroke-width="4"/><circle cx="531" cy="566.1" r="12.1" fill="#F27B8A"/><circle cx="531" cy="566.1" r="4" fill="#C47A1B"/><line x1="703.7" y1="519.7" x2="703.7" y2="550.5" stroke="#3E7C3A" stroke-width="3.4"/><circle cx="703.7" cy="519.7" r="10.3" fill="#F27B8A"/><circle cx="703.7" cy="519.7" r="3.4" fill="#C47A1B"/><line x1="271.1" y1="501.7" x2="271.1" y2="530.5" stroke="#3E7C3A" stroke-width="3.2"/><circle cx="271.1" cy="501.7" r="9.6" fill="#F27B8A"/><circle cx="271.1" cy="501.7" r="3.2" fill="#C47A1B"/><line x1="537.1" y1="345.8" x2="537.1" y2="356.6" stroke="#3E7C3A" stroke-width="1.2"/><circle cx="537.1" cy="345.8" r="3.6" fill="#F59E4C"/><circle cx="537.1" cy="345.8" r="1.2" fill="#C47A1B"/><line x1="75.4" y1="363.6" x2="75.4" y2="376.5" stroke="#3E7C3A" stroke-width="1.4"/><circle cx="75.4" cy="363.6" r="4.3" fill="#F27B8A"/><circle cx="75.4" cy="363.6" r="1.4" fill="#C47A1B"/><line x1="405.2" y1="518" x2="405.2" y2="548.6" stroke="#3E7C3A" stroke-width="3.4"/><circle cx="405.2" cy="518" r="10.2" fill="#FFFFFF"/><circle cx="405.2" cy="518" r="3.4" fill="#C47A1B"/><line x1="373.7" y1="345.8" x2="373.7" y2="356.6" stroke="#3E7C3A" stroke-width="1.2"/><circle cx="373.7" cy="345.8" r="3.6" fill="#F27B8A"/><circle cx="373.7" cy="345.8" r="1.2" fill="#C47A1B"/></svg>
